<?xml version="1.0" encoding="UTF-8"?>
<svg width="24px" height="22px" viewBox="0 0 24 22" version="1.1" xmlns="http://www.w3.org/2000/svg" xmlns:xlink="http://www.w3.org/1999/xlink">
    <!-- Generator: Sketch 54.1 (76490) - https://sketchapp.com -->
    <title>Lock_Icon Copy</title>
    <desc>Created with Sketch.</desc>
    <g id="Yodlee-Fastlink" stroke="none" stroke-width="1" fill="none" fill-rule="evenodd">
        <g id="Bank-login---Page-Level-Error---Web" transform="translate(-312.000000, -488.000000)" fill="#D20000">
            <g id="Group" transform="translate(312.000000, 481.000000)">
                <g id="Icons/critical-alt" transform="translate(0.000000, 6.000000)">
                    <path d="M13.7431511,2.40578267 L23.4633544,19.6861442 C23.7299537,20.1600984 23.782549,20.6962721 23.6523659,21.1831465 C23.5181155,21.6852319 23.1894874,22.1348894 22.7007258,22.4098177 C22.4013625,22.5782096 22.0636771,22.6666667 21.7202034,22.6666667 L2.27979665,22.6666667 C1.17522715,22.6666667 0.279796646,21.7712362 0.279796646,20.6666667 C0.279796646,20.323193 0.368253724,19.9855075 0.536645572,19.6861442 L10.2568489,2.40578267 C10.5229193,1.93276864 10.9526409,1.60973552 11.4351571,1.46772315 C11.9346962,1.32070065 12.4908208,1.36769685 12.9805225,1.64315407 C13.2997715,1.82273162 13.5635735,2.08653369 13.7431511,2.40578267 Z M12,6.66666667 C11.2636203,6.66666667 10.6666667,7.26362033 10.6666667,8 L10.6666667,13.3333333 C10.6666667,14.069713 11.2636203,14.6666667 12,14.6666667 C12.7363797,14.6666667 13.3333333,14.069713 13.3333333,13.3333333 L13.3333333,8 C13.3333333,7.26362033 12.7363797,6.66666667 12,6.66666667 Z M12,20 C12.7363797,20 13.3333333,19.4030463 13.3333333,18.6666667 C13.3333333,17.930287 12.7363797,17.3333333 12,17.3333333 C11.2636203,17.3333333 10.6666667,17.930287 10.6666667,18.6666667 C10.6666667,19.4030463 11.2636203,20 12,20 Z" id="Shape"></path>
                </g>
            </g>
        </g>
    </g>
</svg>