<svg
  xmlns="http://www.w3.org/2000/svg"
  fill="#CCC"
  viewBox="0 0 40 40"
  preserveAspectRatio="xMidYMid meet"
  width="34px"
  height="34px">
<g>
<path
  d="m 4.4 37.1 h 31.4 v -22.8 h -31.4 v 22.8 Z m 8.5 -27.1
    v -6.4 q 0 -0.3 -0.2 -0.5 t -0.5 -0.2 h -1.4 q -0.3 0 -0.5 0.2
    t -0.2 0.5 v 6.4 q 0 0.3 0.2 0.5 t 0.5 0.2 h 1.4
    q 0.3 0 0.5 -0.2 t 0.2 -0.5 Z m 17.2 0 v -6.4
    q 0 -0.3 -0.2 -0.5 t -0.5 -0.2 h -1.5 q -0.3 0 -0.5 0.2
    t -0.2 0.5 v 6.4 q 0 0.3 0.2 0.5 t 0.5 0.2 h 1.5
    q 0.3 0 0.5 -0.2 t 0.2 -0.5 Z m 8.5 -1.4 v 28.5
    q 0 1.2 -0.8 2.1 t -2 0.8 h -31.4 q -1.2 0 -2.1 -0.9 t -0.8 -2
    v -28.5 q 0 -1.2 0.8 -2 t 2.1 -0.9 h 2.8 v -2.1
    q 0 -1.5 1.1 -2.6 t 2.5 -1 h 1.4 q 1.5 0 2.5 1.1 t 1.1 2.5
    v 2.1 h 8.6 v -2.1 q 0 -1.5 1 -2.6 t 2.5 -1 h 1.5
    q 1.4 0 2.5 1.1 t 1 2.5 v 2.1 h 2.9 q 1.1 0 2 0.9 t 0.8 2 Z">
 </path>
 </g>
 </svg>